<mxfile host="app.diagrams.net" modified="2024-02-02T01:14:53.740Z" agent="Mozilla/5.0 (Windows NT 10.0; Win64; x64) AppleWebKit/537.36 (KHTML, like Gecko) Chrome/121.0.0.0 Safari/537.36" etag="9wlXza9tZ4eAI-9263TU" version="23.1.0" type="github">
  <diagram name="학사관리" id="9KBe2_B9uGP1ROqAsY6q">
    <mxGraphModel dx="-374" dy="1209" grid="1" gridSize="10" guides="1" tooltips="1" connect="1" arrows="1" fold="1" page="1" pageScale="1" pageWidth="1200" pageHeight="1920" math="0" shadow="0">
      <root>
        <mxCell id="0" />
        <mxCell id="1" parent="0" />
        <mxCell id="DpdSdQGtIVHTN8KIOxQ6-1" value="교수" style="whiteSpace=wrap;html=1;align=center;" parent="1" vertex="1">
          <mxGeometry x="1450" y="270" width="100" height="40" as="geometry" />
        </mxCell>
        <mxCell id="lsS0LKSdzKloxz8C7JFc-1" value="학과" style="whiteSpace=wrap;html=1;align=center;" vertex="1" parent="1">
          <mxGeometry x="1850" y="270" width="100" height="40" as="geometry" />
        </mxCell>
        <mxCell id="lsS0LKSdzKloxz8C7JFc-2" value="학생" style="whiteSpace=wrap;html=1;align=center;" vertex="1" parent="1">
          <mxGeometry x="1850" y="460" width="100" height="40" as="geometry" />
        </mxCell>
        <mxCell id="lsS0LKSdzKloxz8C7JFc-3" value="과목" style="whiteSpace=wrap;html=1;align=center;" vertex="1" parent="1">
          <mxGeometry x="1450" y="460" width="100" height="40" as="geometry" />
        </mxCell>
        <mxCell id="lsS0LKSdzKloxz8C7JFc-7" value="소속" style="shape=rhombus;perimeter=rhombusPerimeter;whiteSpace=wrap;html=1;align=center;" vertex="1" parent="1">
          <mxGeometry x="1640" y="260" width="120" height="60" as="geometry" />
        </mxCell>
        <mxCell id="lsS0LKSdzKloxz8C7JFc-8" value="소속" style="shape=rhombus;perimeter=rhombusPerimeter;whiteSpace=wrap;html=1;align=center;" vertex="1" parent="1">
          <mxGeometry x="1840" y="360" width="120" height="60" as="geometry" />
        </mxCell>
        <mxCell id="lsS0LKSdzKloxz8C7JFc-10" value="수강" style="shape=rhombus;perimeter=rhombusPerimeter;whiteSpace=wrap;html=1;align=center;" vertex="1" parent="1">
          <mxGeometry x="1640" y="450" width="120" height="60" as="geometry" />
        </mxCell>
        <mxCell id="lsS0LKSdzKloxz8C7JFc-11" value="강의" style="shape=rhombus;perimeter=rhombusPerimeter;whiteSpace=wrap;html=1;align=center;" vertex="1" parent="1">
          <mxGeometry x="1440" y="360" width="120" height="60" as="geometry" />
        </mxCell>
        <mxCell id="lsS0LKSdzKloxz8C7JFc-13" value="" style="endArrow=none;html=1;rounded=0;exitX=0.5;exitY=0;exitDx=0;exitDy=0;entryX=0.5;entryY=1;entryDx=0;entryDy=0;" edge="1" parent="1" source="lsS0LKSdzKloxz8C7JFc-11" target="DpdSdQGtIVHTN8KIOxQ6-1">
          <mxGeometry relative="1" as="geometry">
            <mxPoint x="1650" y="450" as="sourcePoint" />
            <mxPoint x="1810" y="450" as="targetPoint" />
          </mxGeometry>
        </mxCell>
        <mxCell id="lsS0LKSdzKloxz8C7JFc-28" value="1" style="edgeLabel;html=1;align=center;verticalAlign=middle;resizable=0;points=[];" vertex="1" connectable="0" parent="lsS0LKSdzKloxz8C7JFc-13">
          <mxGeometry x="-0.3523" y="1" relative="1" as="geometry">
            <mxPoint x="11" as="offset" />
          </mxGeometry>
        </mxCell>
        <mxCell id="lsS0LKSdzKloxz8C7JFc-14" value="" style="endArrow=none;html=1;rounded=0;entryX=0.5;entryY=0;entryDx=0;entryDy=0;" edge="1" parent="1" source="lsS0LKSdzKloxz8C7JFc-11" target="lsS0LKSdzKloxz8C7JFc-3">
          <mxGeometry relative="1" as="geometry">
            <mxPoint x="1500" y="430" as="sourcePoint" />
            <mxPoint x="1500" y="450" as="targetPoint" />
          </mxGeometry>
        </mxCell>
        <mxCell id="lsS0LKSdzKloxz8C7JFc-29" value="N" style="edgeLabel;html=1;align=center;verticalAlign=middle;resizable=0;points=[];" vertex="1" connectable="0" parent="lsS0LKSdzKloxz8C7JFc-14">
          <mxGeometry x="0.1071" relative="1" as="geometry">
            <mxPoint x="10" y="-12" as="offset" />
          </mxGeometry>
        </mxCell>
        <mxCell id="lsS0LKSdzKloxz8C7JFc-15" value="" style="endArrow=none;html=1;rounded=0;entryX=0;entryY=0.5;entryDx=0;entryDy=0;exitX=1;exitY=0.5;exitDx=0;exitDy=0;" edge="1" parent="1" source="lsS0LKSdzKloxz8C7JFc-3" target="lsS0LKSdzKloxz8C7JFc-10">
          <mxGeometry relative="1" as="geometry">
            <mxPoint x="1510" y="430" as="sourcePoint" />
            <mxPoint x="1510" y="470" as="targetPoint" />
          </mxGeometry>
        </mxCell>
        <mxCell id="lsS0LKSdzKloxz8C7JFc-26" value="N" style="edgeLabel;html=1;align=center;verticalAlign=middle;resizable=0;points=[];" vertex="1" connectable="0" parent="lsS0LKSdzKloxz8C7JFc-15">
          <mxGeometry x="0.2643" y="1" relative="1" as="geometry">
            <mxPoint x="23" y="-9" as="offset" />
          </mxGeometry>
        </mxCell>
        <mxCell id="lsS0LKSdzKloxz8C7JFc-16" value="" style="endArrow=none;html=1;rounded=0;entryX=0;entryY=0.5;entryDx=0;entryDy=0;exitX=1;exitY=0.5;exitDx=0;exitDy=0;" edge="1" parent="1" source="lsS0LKSdzKloxz8C7JFc-10" target="lsS0LKSdzKloxz8C7JFc-2">
          <mxGeometry relative="1" as="geometry">
            <mxPoint x="1560" y="490" as="sourcePoint" />
            <mxPoint x="1650" y="490" as="targetPoint" />
          </mxGeometry>
        </mxCell>
        <mxCell id="lsS0LKSdzKloxz8C7JFc-27" value="M" style="edgeLabel;html=1;align=center;verticalAlign=middle;resizable=0;points=[];" vertex="1" connectable="0" parent="lsS0LKSdzKloxz8C7JFc-16">
          <mxGeometry x="-0.5876" y="2" relative="1" as="geometry">
            <mxPoint y="-8" as="offset" />
          </mxGeometry>
        </mxCell>
        <mxCell id="lsS0LKSdzKloxz8C7JFc-17" value="" style="endArrow=none;html=1;rounded=0;entryX=0;entryY=0.5;entryDx=0;entryDy=0;exitX=1;exitY=0.5;exitDx=0;exitDy=0;" edge="1" parent="1">
          <mxGeometry relative="1" as="geometry">
            <mxPoint x="1550" y="289.28999999999996" as="sourcePoint" />
            <mxPoint x="1640" y="289.28999999999996" as="targetPoint" />
          </mxGeometry>
        </mxCell>
        <mxCell id="lsS0LKSdzKloxz8C7JFc-22" value="N" style="edgeLabel;html=1;align=center;verticalAlign=middle;resizable=0;points=[];" vertex="1" connectable="0" parent="lsS0LKSdzKloxz8C7JFc-17">
          <mxGeometry x="0.3157" y="-1" relative="1" as="geometry">
            <mxPoint x="21" y="-10" as="offset" />
          </mxGeometry>
        </mxCell>
        <mxCell id="lsS0LKSdzKloxz8C7JFc-18" value="" style="endArrow=none;html=1;rounded=0;entryX=0;entryY=0.5;entryDx=0;entryDy=0;exitX=1;exitY=0.5;exitDx=0;exitDy=0;" edge="1" parent="1">
          <mxGeometry relative="1" as="geometry">
            <mxPoint x="1760" y="290.28999999999996" as="sourcePoint" />
            <mxPoint x="1850" y="290.28999999999996" as="targetPoint" />
          </mxGeometry>
        </mxCell>
        <mxCell id="lsS0LKSdzKloxz8C7JFc-19" value="" style="endArrow=none;html=1;rounded=0;exitX=0.5;exitY=0;exitDx=0;exitDy=0;entryX=0.5;entryY=1;entryDx=0;entryDy=0;" edge="1" parent="1" source="lsS0LKSdzKloxz8C7JFc-8" target="lsS0LKSdzKloxz8C7JFc-1">
          <mxGeometry relative="1" as="geometry">
            <mxPoint x="1510" y="370" as="sourcePoint" />
            <mxPoint x="1510" y="320" as="targetPoint" />
          </mxGeometry>
        </mxCell>
        <mxCell id="lsS0LKSdzKloxz8C7JFc-20" value="" style="endArrow=none;html=1;rounded=0;exitX=0.5;exitY=0;exitDx=0;exitDy=0;entryX=0.5;entryY=1;entryDx=0;entryDy=0;" edge="1" parent="1" source="lsS0LKSdzKloxz8C7JFc-2" target="lsS0LKSdzKloxz8C7JFc-8">
          <mxGeometry relative="1" as="geometry">
            <mxPoint x="1910" y="370" as="sourcePoint" />
            <mxPoint x="1910" y="320" as="targetPoint" />
          </mxGeometry>
        </mxCell>
        <mxCell id="lsS0LKSdzKloxz8C7JFc-23" value="1" style="edgeLabel;html=1;align=center;verticalAlign=middle;resizable=0;points=[];" vertex="1" connectable="0" parent="1">
          <mxGeometry x="1709.996666666667" y="286.99999999999994" as="geometry">
            <mxPoint x="56" y="-7" as="offset" />
          </mxGeometry>
        </mxCell>
        <mxCell id="lsS0LKSdzKloxz8C7JFc-24" value="1" style="edgeLabel;html=1;align=center;verticalAlign=middle;resizable=0;points=[];" vertex="1" connectable="0" parent="1">
          <mxGeometry x="1829.996666666667" y="359.99999999999994" as="geometry">
            <mxPoint x="56" y="-7" as="offset" />
          </mxGeometry>
        </mxCell>
        <mxCell id="lsS0LKSdzKloxz8C7JFc-25" value="N" style="edgeLabel;html=1;align=center;verticalAlign=middle;resizable=0;points=[];" vertex="1" connectable="0" parent="1">
          <mxGeometry x="1639.996666666667" y="269.99999999999994" as="geometry">
            <mxPoint x="246" y="161" as="offset" />
          </mxGeometry>
        </mxCell>
        <mxCell id="lsS0LKSdzKloxz8C7JFc-30" value="학과명" style="ellipse;whiteSpace=wrap;html=1;align=center;" vertex="1" parent="1">
          <mxGeometry x="1980" y="200" width="100" height="40" as="geometry" />
        </mxCell>
        <mxCell id="lsS0LKSdzKloxz8C7JFc-32" style="edgeStyle=orthogonalEdgeStyle;rounded=0;orthogonalLoop=1;jettySize=auto;html=1;exitX=0.5;exitY=1;exitDx=0;exitDy=0;endArrow=none;endFill=0;" edge="1" parent="1" source="lsS0LKSdzKloxz8C7JFc-31" target="lsS0LKSdzKloxz8C7JFc-1">
          <mxGeometry relative="1" as="geometry" />
        </mxCell>
        <mxCell id="lsS0LKSdzKloxz8C7JFc-31" value="학과코드" style="ellipse;whiteSpace=wrap;html=1;align=center;fontStyle=4;" vertex="1" parent="1">
          <mxGeometry x="1850" y="170" width="100" height="40" as="geometry" />
        </mxCell>
        <mxCell id="lsS0LKSdzKloxz8C7JFc-35" value="" style="endArrow=none;html=1;rounded=0;entryX=0.34;entryY=0.938;entryDx=0;entryDy=0;entryPerimeter=0;exitX=0.5;exitY=0;exitDx=0;exitDy=0;" edge="1" parent="1" source="lsS0LKSdzKloxz8C7JFc-1" target="lsS0LKSdzKloxz8C7JFc-30">
          <mxGeometry relative="1" as="geometry">
            <mxPoint x="1630" y="230" as="sourcePoint" />
            <mxPoint x="1790" y="230" as="targetPoint" />
          </mxGeometry>
        </mxCell>
        <mxCell id="lsS0LKSdzKloxz8C7JFc-36" value="이름" style="ellipse;whiteSpace=wrap;html=1;align=center;" vertex="1" parent="1">
          <mxGeometry x="2000" y="420" width="100" height="40" as="geometry" />
        </mxCell>
        <mxCell id="lsS0LKSdzKloxz8C7JFc-37" value="키" style="ellipse;whiteSpace=wrap;html=1;align=center;" vertex="1" parent="1">
          <mxGeometry x="2000" y="490" width="100" height="40" as="geometry" />
        </mxCell>
        <mxCell id="lsS0LKSdzKloxz8C7JFc-39" value="학번" style="ellipse;whiteSpace=wrap;html=1;align=center;fontStyle=4;" vertex="1" parent="1">
          <mxGeometry x="2000" y="560" width="100" height="40" as="geometry" />
        </mxCell>
        <mxCell id="lsS0LKSdzKloxz8C7JFc-40" value="" style="endArrow=none;html=1;rounded=0;entryX=0;entryY=1;entryDx=0;entryDy=0;exitX=0.5;exitY=0;exitDx=0;exitDy=0;" edge="1" parent="1" target="lsS0LKSdzKloxz8C7JFc-36">
          <mxGeometry relative="1" as="geometry">
            <mxPoint x="1950" y="482" as="sourcePoint" />
            <mxPoint x="2064" y="450" as="targetPoint" />
          </mxGeometry>
        </mxCell>
        <mxCell id="lsS0LKSdzKloxz8C7JFc-41" value="" style="endArrow=none;html=1;rounded=0;entryX=0;entryY=0.5;entryDx=0;entryDy=0;exitX=1;exitY=0.5;exitDx=0;exitDy=0;" edge="1" parent="1" source="lsS0LKSdzKloxz8C7JFc-2" target="lsS0LKSdzKloxz8C7JFc-37">
          <mxGeometry relative="1" as="geometry">
            <mxPoint x="1960" y="492" as="sourcePoint" />
            <mxPoint x="2025" y="464" as="targetPoint" />
          </mxGeometry>
        </mxCell>
        <mxCell id="lsS0LKSdzKloxz8C7JFc-42" value="" style="endArrow=none;html=1;rounded=0;entryX=0;entryY=0.5;entryDx=0;entryDy=0;exitX=1;exitY=0.5;exitDx=0;exitDy=0;" edge="1" parent="1" source="lsS0LKSdzKloxz8C7JFc-2" target="lsS0LKSdzKloxz8C7JFc-39">
          <mxGeometry relative="1" as="geometry">
            <mxPoint x="1960" y="490" as="sourcePoint" />
            <mxPoint x="2010" y="520" as="targetPoint" />
          </mxGeometry>
        </mxCell>
        <mxCell id="lsS0LKSdzKloxz8C7JFc-43" value="수강일자" style="ellipse;whiteSpace=wrap;html=1;align=center;" vertex="1" parent="1">
          <mxGeometry x="1710" y="560" width="100" height="40" as="geometry" />
        </mxCell>
        <mxCell id="lsS0LKSdzKloxz8C7JFc-44" style="edgeStyle=orthogonalEdgeStyle;rounded=0;orthogonalLoop=1;jettySize=auto;html=1;exitX=0.5;exitY=1;exitDx=0;exitDy=0;" edge="1" parent="1" source="lsS0LKSdzKloxz8C7JFc-43" target="lsS0LKSdzKloxz8C7JFc-43">
          <mxGeometry relative="1" as="geometry" />
        </mxCell>
        <mxCell id="lsS0LKSdzKloxz8C7JFc-46" value="수강번호" style="ellipse;whiteSpace=wrap;html=1;align=center;fontStyle=4;" vertex="1" parent="1">
          <mxGeometry x="1590" y="560" width="100" height="40" as="geometry" />
        </mxCell>
        <mxCell id="lsS0LKSdzKloxz8C7JFc-47" value="" style="endArrow=none;html=1;rounded=0;entryX=0.5;entryY=0;entryDx=0;entryDy=0;exitX=0.5;exitY=1;exitDx=0;exitDy=0;" edge="1" parent="1" source="lsS0LKSdzKloxz8C7JFc-10" target="lsS0LKSdzKloxz8C7JFc-46">
          <mxGeometry relative="1" as="geometry">
            <mxPoint x="1960" y="490" as="sourcePoint" />
            <mxPoint x="2010" y="520" as="targetPoint" />
          </mxGeometry>
        </mxCell>
        <mxCell id="lsS0LKSdzKloxz8C7JFc-48" value="" style="endArrow=none;html=1;rounded=0;entryX=0.5;entryY=0;entryDx=0;entryDy=0;exitX=0.5;exitY=1;exitDx=0;exitDy=0;" edge="1" parent="1" source="lsS0LKSdzKloxz8C7JFc-10" target="lsS0LKSdzKloxz8C7JFc-43">
          <mxGeometry relative="1" as="geometry">
            <mxPoint x="1710" y="520" as="sourcePoint" />
            <mxPoint x="1650" y="570" as="targetPoint" />
          </mxGeometry>
        </mxCell>
        <mxCell id="lsS0LKSdzKloxz8C7JFc-49" value="학과코드" style="ellipse;whiteSpace=wrap;html=1;align=center;fontStyle=4;" vertex="1" parent="1">
          <mxGeometry x="1280" y="470" width="100" height="40" as="geometry" />
        </mxCell>
        <mxCell id="lsS0LKSdzKloxz8C7JFc-50" value="수강일자" style="ellipse;whiteSpace=wrap;html=1;align=center;" vertex="1" parent="1">
          <mxGeometry x="1310" y="540" width="100" height="40" as="geometry" />
        </mxCell>
        <mxCell id="lsS0LKSdzKloxz8C7JFc-51" value="수강일자" style="ellipse;whiteSpace=wrap;html=1;align=center;" vertex="1" parent="1">
          <mxGeometry x="1370" y="600" width="100" height="40" as="geometry" />
        </mxCell>
        <mxCell id="lsS0LKSdzKloxz8C7JFc-52" value="수강일자" style="ellipse;whiteSpace=wrap;html=1;align=center;" vertex="1" parent="1">
          <mxGeometry x="1460" y="540" width="100" height="40" as="geometry" />
        </mxCell>
        <mxCell id="lsS0LKSdzKloxz8C7JFc-54" value="" style="endArrow=none;html=1;rounded=0;entryX=1;entryY=0.5;entryDx=0;entryDy=0;exitX=0;exitY=0.5;exitDx=0;exitDy=0;" edge="1" parent="1" source="lsS0LKSdzKloxz8C7JFc-3" target="lsS0LKSdzKloxz8C7JFc-49">
          <mxGeometry relative="1" as="geometry">
            <mxPoint x="1710" y="520" as="sourcePoint" />
            <mxPoint x="1650" y="570" as="targetPoint" />
          </mxGeometry>
        </mxCell>
        <mxCell id="lsS0LKSdzKloxz8C7JFc-55" value="" style="endArrow=none;html=1;rounded=0;entryX=0.5;entryY=0;entryDx=0;entryDy=0;" edge="1" parent="1" target="lsS0LKSdzKloxz8C7JFc-50">
          <mxGeometry relative="1" as="geometry">
            <mxPoint x="1450" y="480" as="sourcePoint" />
            <mxPoint x="1390" y="500" as="targetPoint" />
          </mxGeometry>
        </mxCell>
        <mxCell id="lsS0LKSdzKloxz8C7JFc-57" value="" style="endArrow=none;html=1;rounded=0;entryX=0.5;entryY=0;entryDx=0;entryDy=0;" edge="1" parent="1" source="lsS0LKSdzKloxz8C7JFc-3" target="lsS0LKSdzKloxz8C7JFc-51">
          <mxGeometry relative="1" as="geometry">
            <mxPoint x="1460" y="490" as="sourcePoint" />
            <mxPoint x="1370" y="550" as="targetPoint" />
          </mxGeometry>
        </mxCell>
        <mxCell id="lsS0LKSdzKloxz8C7JFc-58" value="" style="endArrow=none;html=1;rounded=0;entryX=0.5;entryY=0;entryDx=0;entryDy=0;exitX=0.4;exitY=1.019;exitDx=0;exitDy=0;exitPerimeter=0;" edge="1" parent="1" source="lsS0LKSdzKloxz8C7JFc-3" target="lsS0LKSdzKloxz8C7JFc-52">
          <mxGeometry relative="1" as="geometry">
            <mxPoint x="1497" y="510" as="sourcePoint" />
            <mxPoint x="1430" y="610" as="targetPoint" />
          </mxGeometry>
        </mxCell>
        <mxCell id="lsS0LKSdzKloxz8C7JFc-59" value="교수코드" style="ellipse;whiteSpace=wrap;html=1;align=center;fontStyle=4;" vertex="1" parent="1">
          <mxGeometry x="1450" y="150" width="100" height="40" as="geometry" />
        </mxCell>
        <mxCell id="lsS0LKSdzKloxz8C7JFc-60" value="고객명" style="ellipse;whiteSpace=wrap;html=1;align=center;" vertex="1" parent="1">
          <mxGeometry x="1340" y="200" width="100" height="40" as="geometry" />
        </mxCell>
        <mxCell id="lsS0LKSdzKloxz8C7JFc-63" value="" style="endArrow=none;html=1;rounded=0;exitX=0.5;exitY=0;exitDx=0;exitDy=0;" edge="1" parent="1" source="DpdSdQGtIVHTN8KIOxQ6-1" target="lsS0LKSdzKloxz8C7JFc-59">
          <mxGeometry relative="1" as="geometry">
            <mxPoint x="1910" y="280" as="sourcePoint" />
            <mxPoint x="2024" y="248" as="targetPoint" />
          </mxGeometry>
        </mxCell>
        <mxCell id="lsS0LKSdzKloxz8C7JFc-64" value="" style="endArrow=none;html=1;rounded=0;entryX=1;entryY=1;entryDx=0;entryDy=0;exitX=0.5;exitY=0;exitDx=0;exitDy=0;" edge="1" parent="1" source="DpdSdQGtIVHTN8KIOxQ6-1" target="lsS0LKSdzKloxz8C7JFc-60">
          <mxGeometry relative="1" as="geometry">
            <mxPoint x="1910" y="280" as="sourcePoint" />
            <mxPoint x="2024" y="248" as="targetPoint" />
          </mxGeometry>
        </mxCell>
      </root>
    </mxGraphModel>
  </diagram>
</mxfile>
